<mxfile host="app.diagrams.net" agent="Mozilla/5.0 (X11; Ubuntu; Linux x86_64; rv:132.0) Gecko/20100101 Firefox/132.0" version="24.8.6">
  <diagram id="C5RBs43oDa-KdzZeNtuy" name="Page-1">
    <mxGraphModel dx="537" dy="766" grid="1" gridSize="10" guides="1" tooltips="1" connect="1" arrows="1" fold="1" page="1" pageScale="1" pageWidth="827" pageHeight="1169" math="0" shadow="0">
      <root>
        <mxCell id="WIyWlLk6GJQsqaUBKTNV-0" />
        <mxCell id="WIyWlLk6GJQsqaUBKTNV-1" parent="WIyWlLk6GJQsqaUBKTNV-0" />
        <mxCell id="Yi4sXTdRfJ2hncfJeWix-0" value="&lt;div style=&quot;font-size: 11px; margin-top: 16px;&quot;&gt;{data_inicio_emprestimo &amp;lt; data_limite_pagamento}&lt;font style=&quot;font-size: 11px;&quot;&gt; &lt;br&gt;&lt;/font&gt;&lt;/div&gt;" style="shape=note;whiteSpace=wrap;html=1;backgroundOutline=1;darkOpacity=0.05;container=0;" parent="WIyWlLk6GJQsqaUBKTNV-1" vertex="1">
          <mxGeometry x="1503.5" y="337.5" width="130" height="95" as="geometry" />
        </mxCell>
        <mxCell id="Yi4sXTdRfJ2hncfJeWix-1" value="Funcionário" style="swimlane;fontStyle=0;align=center;verticalAlign=top;childLayout=stackLayout;horizontal=1;startSize=26;horizontalStack=0;resizeParent=1;resizeLast=0;collapsible=1;marginBottom=0;rounded=0;shadow=0;strokeWidth=1;container=0;spacingLeft=5;" parent="WIyWlLk6GJQsqaUBKTNV-1" vertex="1">
          <mxGeometry x="841" y="1030" width="160" height="70" as="geometry">
            <mxRectangle x="340" y="380" width="170" height="26" as="alternateBounds" />
          </mxGeometry>
        </mxCell>
        <mxCell id="Yi4sXTdRfJ2hncfJeWix-2" value="&lt;div&gt;salário&lt;/div&gt;" style="text;whiteSpace=wrap;html=1;spacingLeft=4;" parent="Yi4sXTdRfJ2hncfJeWix-1" vertex="1">
          <mxGeometry y="26" width="160" height="14" as="geometry" />
        </mxCell>
        <mxCell id="Yi4sXTdRfJ2hncfJeWix-3" value="Loja" style="swimlane;fontStyle=0;align=center;verticalAlign=top;childLayout=stackLayout;horizontal=1;startSize=26;horizontalStack=0;resizeParent=1;resizeLast=0;collapsible=1;marginBottom=0;rounded=0;shadow=0;strokeWidth=1;container=0;" parent="WIyWlLk6GJQsqaUBKTNV-1" vertex="1">
          <mxGeometry x="1091" y="30" width="190" height="90" as="geometry">
            <mxRectangle x="230" y="140" width="160" height="26" as="alternateBounds" />
          </mxGeometry>
        </mxCell>
        <mxCell id="Yi4sXTdRfJ2hncfJeWix-4" value="nome&#xa;endereço&#xa;telefone&#xa;" style="text;align=left;verticalAlign=top;spacingLeft=4;spacingRight=4;overflow=hidden;rotatable=0;points=[[0,0.5],[1,0.5]];portConstraint=eastwest;container=0;" parent="Yi4sXTdRfJ2hncfJeWix-3" vertex="1">
          <mxGeometry y="26" width="190" height="64" as="geometry" />
        </mxCell>
        <mxCell id="Yi4sXTdRfJ2hncfJeWix-5" value="Estado" style="swimlane;fontStyle=0;align=center;verticalAlign=top;childLayout=stackLayout;horizontal=1;startSize=26;horizontalStack=0;resizeParent=1;resizeLast=0;collapsible=1;marginBottom=0;rounded=0;shadow=0;strokeWidth=1;container=0;" parent="WIyWlLk6GJQsqaUBKTNV-1" vertex="1">
          <mxGeometry x="1420" y="233" width="150" height="90" as="geometry">
            <mxRectangle x="340" y="380" width="170" height="26" as="alternateBounds" />
          </mxGeometry>
        </mxCell>
        <mxCell id="Yi4sXTdRfJ2hncfJeWix-6" value="tipo&#xa;data_atribuição_estado" style="text;align=left;verticalAlign=top;spacingLeft=4;spacingRight=4;overflow=hidden;rotatable=0;points=[[0,0.5],[1,0.5]];portConstraint=eastwest;fontStyle=0;container=0;" parent="Yi4sXTdRfJ2hncfJeWix-5" vertex="1">
          <mxGeometry y="26" width="150" height="64" as="geometry" />
        </mxCell>
        <mxCell id="Yi4sXTdRfJ2hncfJeWix-7" value="Item" style="swimlane;fontStyle=0;childLayout=stackLayout;horizontal=1;startSize=30;horizontalStack=0;resizeParent=1;resizeParentMax=0;resizeLast=0;collapsible=1;marginBottom=0;whiteSpace=wrap;html=1;container=0;" parent="WIyWlLk6GJQsqaUBKTNV-1" vertex="1">
          <mxGeometry x="1053" y="230" width="286" height="130" as="geometry" />
        </mxCell>
        <mxCell id="Yi4sXTdRfJ2hncfJeWix-38" value="data_entrada&#xa;nome&#xa;categoria&#xa;dimensões&#xa;material&#xa;preço_venda&#xa;" style="text;align=left;verticalAlign=top;spacingLeft=4;spacingRight=4;overflow=hidden;rotatable=0;points=[[0,0.5],[1,0.5]];portConstraint=eastwest;fontStyle=0;container=0;" parent="Yi4sXTdRfJ2hncfJeWix-7" vertex="1">
          <mxGeometry y="30" width="286" height="100" as="geometry" />
        </mxCell>
        <mxCell id="Yi4sXTdRfJ2hncfJeWix-8" value="Avaliação" style="swimlane;fontStyle=0;align=center;verticalAlign=top;childLayout=stackLayout;horizontal=1;startSize=26;horizontalStack=0;resizeParent=1;resizeLast=0;collapsible=1;marginBottom=0;rounded=0;shadow=0;strokeWidth=1;container=0;" parent="WIyWlLk6GJQsqaUBKTNV-1" vertex="1">
          <mxGeometry x="876.5" y="585" width="160" height="110" as="geometry">
            <mxRectangle x="340" y="380" width="170" height="26" as="alternateBounds" />
          </mxGeometry>
        </mxCell>
        <mxCell id="Yi4sXTdRfJ2hncfJeWix-39" value="data_avaliação&#xa;notas_avaliação&#xa;valor_avaliado&#xa;estado_conservação&#xa;&#xa;" style="text;align=left;verticalAlign=top;spacingLeft=4;spacingRight=4;overflow=hidden;rotatable=0;points=[[0,0.5],[1,0.5]];portConstraint=eastwest;fontStyle=0;container=0;" parent="Yi4sXTdRfJ2hncfJeWix-8" vertex="1">
          <mxGeometry y="26" width="160" height="84" as="geometry" />
        </mxCell>
        <mxCell id="Yi4sXTdRfJ2hncfJeWix-11" value="Cliente" style="swimlane;fontStyle=0;align=center;verticalAlign=top;childLayout=stackLayout;horizontal=1;startSize=26;horizontalStack=0;resizeParent=1;resizeLast=0;collapsible=1;marginBottom=0;rounded=0;shadow=0;strokeWidth=1;container=0;" parent="WIyWlLk6GJQsqaUBKTNV-1" vertex="1">
          <mxGeometry x="1080" y="810" width="156" height="56" as="geometry">
            <mxRectangle x="340" y="380" width="170" height="26" as="alternateBounds" />
          </mxGeometry>
        </mxCell>
        <mxCell id="Yi4sXTdRfJ2hncfJeWix-13" value="Transação" style="swimlane;fontStyle=0;align=center;verticalAlign=top;childLayout=stackLayout;horizontal=1;startSize=26;horizontalStack=0;resizeParent=1;resizeLast=0;collapsible=1;marginBottom=0;rounded=0;shadow=0;strokeWidth=1;container=0;" parent="WIyWlLk6GJQsqaUBKTNV-1" vertex="1">
          <mxGeometry x="1117" y="512.5" width="170" height="110" as="geometry">
            <mxRectangle x="340" y="380" width="170" height="26" as="alternateBounds" />
          </mxGeometry>
        </mxCell>
        <mxCell id="Yi4sXTdRfJ2hncfJeWix-14" value="tipo&#xa;valor&#xa;data_transação&#xa;método_pagamento&#xa;" style="text;align=left;verticalAlign=top;spacingLeft=4;spacingRight=4;overflow=hidden;rotatable=0;points=[[0,0.5],[1,0.5]];portConstraint=eastwest;fontStyle=0;container=0;" parent="Yi4sXTdRfJ2hncfJeWix-13" vertex="1">
          <mxGeometry y="26" width="170" height="84" as="geometry" />
        </mxCell>
        <mxCell id="Yi4sXTdRfJ2hncfJeWix-24" value="" style="endArrow=none;html=1;rounded=0;exitX=0.125;exitY=0;exitDx=0;exitDy=0;exitPerimeter=0;" parent="WIyWlLk6GJQsqaUBKTNV-1" source="Yi4sXTdRfJ2hncfJeWix-1" edge="1">
          <mxGeometry width="50" height="50" relative="1" as="geometry">
            <mxPoint x="847" y="740" as="sourcePoint" />
            <mxPoint x="860" y="70" as="targetPoint" />
          </mxGeometry>
        </mxCell>
        <mxCell id="Yi4sXTdRfJ2hncfJeWix-25" value="" style="endArrow=none;html=1;rounded=0;entryX=0.818;entryY=0.033;entryDx=0;entryDy=0;entryPerimeter=0;" parent="WIyWlLk6GJQsqaUBKTNV-1" target="Yi4sXTdRfJ2hncfJeWix-43" edge="1">
          <mxGeometry width="50" height="50" relative="1" as="geometry">
            <mxPoint x="853" y="70" as="sourcePoint" />
            <mxPoint x="1081" y="70" as="targetPoint" />
          </mxGeometry>
        </mxCell>
        <mxCell id="Yi4sXTdRfJ2hncfJeWix-27" value="&lt;div style=&quot;padding-right: 3px; margin-bottom: 0px; margin-top: 16px; font-size: 11px; line-height: 100%;&quot; align=&quot;center&quot;&gt;Se Estado.tipo != &#39;penhorado&#39;, então o Item não terá Termo de Empréstimo.&lt;br&gt;&lt;/div&gt;&lt;div style=&quot;padding-right: 3px; margin-bottom: 0px; margin-top: 16px; font-size: 11px; line-height: 100%;&quot; align=&quot;center&quot;&gt;Não poderá haver Termo de Empréstimo se a data_limite_pagamento for ultrapassada&lt;/div&gt;&lt;div style=&quot;padding-right: 3px; margin-bottom: 0px; margin-top: 16px; font-size: 11px; line-height: 100%;&quot; align=&quot;center&quot;&gt;&lt;font style=&quot;font-size: 11px;&quot;&gt;O valor_devolver_com_juros deve corresponder ao valor_empréstimo mais 10% desse valor, pois será sempre essa a taxa de juros aplicada.&lt;/font&gt;&lt;/div&gt;" style="shape=note;whiteSpace=wrap;html=1;backgroundOutline=1;darkOpacity=0.05;align=center;container=0;" parent="WIyWlLk6GJQsqaUBKTNV-1" vertex="1">
          <mxGeometry x="1469.5" y="550" width="164" height="260" as="geometry" />
        </mxCell>
        <mxCell id="Yi4sXTdRfJ2hncfJeWix-28" value="&lt;p style=&quot;line-height: 110%; margin-top: 30px; padding-right: 0px;&quot;&gt;&lt;font style=&quot;font-size: 10px;&quot;&gt;{tipo: {&quot;compra&quot;, &quot;requisição de empréstimo&quot;, &quot;devolução do empréstimo&quot;}}&lt;/font&gt;&lt;/p&gt;" style="shape=note;whiteSpace=wrap;html=1;backgroundOutline=1;darkOpacity=0.05;spacingBottom=4;labelBorderColor=none;container=0;" parent="WIyWlLk6GJQsqaUBKTNV-1" vertex="1">
          <mxGeometry x="1277" y="700" width="150" height="100" as="geometry" />
        </mxCell>
        <mxCell id="Yi4sXTdRfJ2hncfJeWix-30" value="&lt;div style=&quot;font-size: 11px; margin-top: 20px;&quot;&gt;&lt;font style=&quot;font-size: 10px;&quot;&gt;{tipo: {&quot;penhorado&quot;, &quot;à venda&quot;, &quot;vendido&quot;, &quot;devolvido&quot;}&lt;/font&gt;&lt;/div&gt;" style="shape=note;whiteSpace=wrap;html=1;backgroundOutline=1;darkOpacity=0.05;container=0;" parent="WIyWlLk6GJQsqaUBKTNV-1" vertex="1">
          <mxGeometry x="1350" y="65" width="80" height="110" as="geometry" />
        </mxCell>
        <mxCell id="Yi4sXTdRfJ2hncfJeWix-31" value="&lt;div&gt;{Item.Estado.data_atri&lt;/div&gt;&lt;div&gt;buição_estado tem que ser igual ou posterior à &lt;br&gt;&lt;/div&gt;&lt;div&gt;Item.data_entrada}}&lt;/div&gt;" style="shape=note;whiteSpace=wrap;html=1;backgroundOutline=1;darkOpacity=0.05;container=0;" parent="WIyWlLk6GJQsqaUBKTNV-1" vertex="1">
          <mxGeometry x="1503.5" y="50" width="130" height="140" as="geometry" />
        </mxCell>
        <mxCell id="Yi4sXTdRfJ2hncfJeWix-34" value="" style="endArrow=none;html=1;rounded=0;entryX=0.007;entryY=0.271;entryDx=0;entryDy=0;entryPerimeter=0;" parent="WIyWlLk6GJQsqaUBKTNV-1" target="Yi4sXTdRfJ2hncfJeWix-6" edge="1">
          <mxGeometry width="50" height="50" relative="1" as="geometry">
            <mxPoint x="1342" y="276" as="sourcePoint" />
            <mxPoint x="1340" y="261" as="targetPoint" />
          </mxGeometry>
        </mxCell>
        <mxCell id="Yi4sXTdRfJ2hncfJeWix-37" value="&#xa;" style="text;align=left;verticalAlign=top;spacingLeft=4;spacingRight=4;overflow=hidden;rotatable=0;points=[[0,0.5],[1,0.5]];portConstraint=eastwest;container=0;" parent="WIyWlLk6GJQsqaUBKTNV-1" vertex="1">
          <mxGeometry x="1091" y="140" width="196" height="4" as="geometry" />
        </mxCell>
        <mxCell id="Yi4sXTdRfJ2hncfJeWix-42" value="" style="endArrow=none;html=1;rounded=0;entryX=0.579;entryY=1.047;entryDx=0;entryDy=0;entryPerimeter=0;" parent="WIyWlLk6GJQsqaUBKTNV-1" target="Yi4sXTdRfJ2hncfJeWix-4" edge="1">
          <mxGeometry width="50" height="50" relative="1" as="geometry">
            <mxPoint x="1200" y="230" as="sourcePoint" />
            <mxPoint x="1200" y="130" as="targetPoint" />
          </mxGeometry>
        </mxCell>
        <mxCell id="Yi4sXTdRfJ2hncfJeWix-43" value="1" style="text;align=left;verticalAlign=top;spacingLeft=4;spacingRight=4;overflow=hidden;rotatable=0;points=[[0,0.5],[1,0.5]];portConstraint=eastwest;fontStyle=0;container=0;" parent="WIyWlLk6GJQsqaUBKTNV-1" vertex="1">
          <mxGeometry x="1069" y="70" width="22" height="30" as="geometry" />
        </mxCell>
        <mxCell id="Yi4sXTdRfJ2hncfJeWix-48" value="1" style="text;align=left;verticalAlign=top;spacingLeft=4;spacingRight=4;overflow=hidden;rotatable=0;points=[[0,0.5],[1,0.5]];portConstraint=eastwest;fontStyle=0;container=0;fontSize=13;" parent="WIyWlLk6GJQsqaUBKTNV-1" vertex="1">
          <mxGeometry x="1341" y="273" width="22" height="30" as="geometry" />
        </mxCell>
        <mxCell id="Yi4sXTdRfJ2hncfJeWix-51" value="1" style="text;align=left;verticalAlign=top;spacingLeft=4;spacingRight=4;overflow=hidden;rotatable=0;points=[[0,0.5],[1,0.5]];portConstraint=eastwest;fontStyle=0;container=0;fontSize=13;" parent="WIyWlLk6GJQsqaUBKTNV-1" vertex="1">
          <mxGeometry x="1204" y="124" width="22" height="30" as="geometry" />
        </mxCell>
        <mxCell id="Yi4sXTdRfJ2hncfJeWix-54" value="" style="shape=image;html=1;verticalAlign=top;verticalLabelPosition=bottom;labelBackgroundColor=#ffffff;imageAspect=0;aspect=fixed;image=https://cdn1.iconfinder.com/data/icons/bootstrap/16/asterisk-128.png;strokeColor=default;align=center;fontFamily=Helvetica;fontSize=12;fontColor=default;fillColor=default;" parent="WIyWlLk6GJQsqaUBKTNV-1" vertex="1">
          <mxGeometry x="1210" y="210" width="10" height="10" as="geometry" />
        </mxCell>
        <mxCell id="Yi4sXTdRfJ2hncfJeWix-57" value="" style="shape=image;html=1;verticalAlign=top;verticalLabelPosition=bottom;labelBackgroundColor=#ffffff;imageAspect=0;aspect=fixed;image=https://cdn1.iconfinder.com/data/icons/bootstrap/16/asterisk-128.png;strokeColor=default;align=center;fontFamily=Helvetica;fontSize=12;fontColor=default;fillColor=default;" parent="WIyWlLk6GJQsqaUBKTNV-1" vertex="1">
          <mxGeometry x="909" y="700" width="10" height="10" as="geometry" />
        </mxCell>
        <mxCell id="Yi4sXTdRfJ2hncfJeWix-59" value="0..1" style="text;align=left;verticalAlign=top;spacingLeft=4;spacingRight=4;overflow=hidden;rotatable=0;points=[[0,0.5],[1,0.5]];portConstraint=eastwest;fontStyle=0;container=0;fontSize=13;" parent="WIyWlLk6GJQsqaUBKTNV-1" vertex="1">
          <mxGeometry x="1390" y="370" width="45" height="30" as="geometry" />
        </mxCell>
        <mxCell id="Yi4sXTdRfJ2hncfJeWix-64" value="&lt;br&gt;&lt;div&gt;&lt;font style=&quot;font-size: 11px;&quot;&gt;Quando a transação &quot;devolução do empréstimo&quot; é consumada e o item penhorado é devolvido, o tipo de Estado é atualizado para &quot;devolvido&quot; e o seu Termo de Empréstimo é finalizado&lt;br&gt;&lt;/font&gt;&lt;/div&gt;" style="shape=note;whiteSpace=wrap;html=1;backgroundOutline=1;darkOpacity=0.05;" parent="WIyWlLk6GJQsqaUBKTNV-1" vertex="1">
          <mxGeometry x="1361.5" y="870" width="208.5" height="140" as="geometry" />
        </mxCell>
        <mxCell id="Yi4sXTdRfJ2hncfJeWix-77" value="1" style="text;align=left;verticalAlign=top;spacingLeft=4;spacingRight=4;overflow=hidden;rotatable=0;points=[[0,0.5],[1,0.5]];portConstraint=eastwest;fontStyle=0;container=0;" parent="WIyWlLk6GJQsqaUBKTNV-1" vertex="1">
          <mxGeometry x="1199" y="360" width="22" height="30" as="geometry" />
        </mxCell>
        <mxCell id="Yi4sXTdRfJ2hncfJeWix-80" value="" style="shape=image;html=1;verticalAlign=top;verticalLabelPosition=bottom;labelBackgroundColor=#ffffff;imageAspect=0;aspect=fixed;image=https://cdn1.iconfinder.com/data/icons/bootstrap/16/asterisk-128.png;strokeColor=default;align=center;fontFamily=Helvetica;fontSize=12;fontColor=default;fillColor=default;" parent="WIyWlLk6GJQsqaUBKTNV-1" vertex="1">
          <mxGeometry x="1401.82" y="260" width="10" height="10" as="geometry" />
        </mxCell>
        <mxCell id="Yi4sXTdRfJ2hncfJeWix-85" value="Pessoa" style="swimlane;fontStyle=0;align=center;verticalAlign=top;childLayout=stackLayout;horizontal=1;startSize=26;horizontalStack=0;resizeParent=1;resizeLast=0;collapsible=1;marginBottom=0;rounded=0;shadow=0;strokeWidth=1;container=0;" parent="WIyWlLk6GJQsqaUBKTNV-1" vertex="1">
          <mxGeometry x="1111" y="1030" width="170" height="110" as="geometry">
            <mxRectangle x="340" y="380" width="170" height="26" as="alternateBounds" />
          </mxGeometry>
        </mxCell>
        <mxCell id="Yi4sXTdRfJ2hncfJeWix-86" value="NIF&#xa;nome&#xa;número_telemóvel&#xa;email" style="text;align=left;verticalAlign=top;spacingLeft=4;spacingRight=4;overflow=hidden;rotatable=0;points=[[0,0.5],[1,0.5]];portConstraint=eastwest;fontStyle=0;container=0;" parent="Yi4sXTdRfJ2hncfJeWix-85" vertex="1">
          <mxGeometry y="26" width="170" height="84" as="geometry" />
        </mxCell>
        <mxCell id="Yi4sXTdRfJ2hncfJeWix-33" value="&lt;p style=&quot;line-height: 110%;&quot;&gt;&lt;/p&gt;&lt;div style=&quot;margin-top: 25px; font-size: 11px; line-height: 90%;&quot;&gt;&lt;font style=&quot;font-size: 11px;&quot;&gt;{Avaliação. data_avaliação &amp;lt;=&lt;br&gt;&lt;/font&gt;&lt;/div&gt;&lt;div style=&quot;font-size: 11px; line-height: 90%;&quot;&gt;&lt;font style=&quot;font-size: 11px;&quot;&gt;Item.data_entra&lt;/font&gt;&lt;/div&gt;&lt;div style=&quot;font-size: 11px; line-height: 90%;&quot;&gt;&lt;font style=&quot;font-size: 11px;&quot;&gt;da}&lt;/font&gt;&lt;/div&gt;&lt;p&gt;&lt;/p&gt;" style="shape=note;whiteSpace=wrap;html=1;backgroundOutline=1;darkOpacity=0.05;container=0;" parent="WIyWlLk6GJQsqaUBKTNV-1" vertex="1">
          <mxGeometry x="974" y="760" width="80" height="140" as="geometry" />
        </mxCell>
        <mxCell id="Yi4sXTdRfJ2hncfJeWix-9" value="Termo de empréstimo" style="swimlane;fontStyle=0;align=center;verticalAlign=top;childLayout=stackLayout;horizontal=1;startSize=26;horizontalStack=0;resizeParent=1;resizeLast=0;collapsible=1;marginBottom=0;rounded=0;shadow=0;strokeWidth=1;container=0;" parent="WIyWlLk6GJQsqaUBKTNV-1" vertex="1">
          <mxGeometry x="1326" y="400" width="155.82" height="120" as="geometry">
            <mxRectangle x="340" y="380" width="170" height="26" as="alternateBounds" />
          </mxGeometry>
        </mxCell>
        <mxCell id="Yi4sXTdRfJ2hncfJeWix-10" value="valor_empréstimo&#xa;valor_devolver_com_juros&#xa;data_início_empréstimo&#xa;data_limite_pagamento&#xa;" style="text;align=left;verticalAlign=top;spacingLeft=4;spacingRight=4;overflow=hidden;rotatable=0;points=[[0,0.5],[1,0.5]];portConstraint=eastwest;fontStyle=0;aspect=fixed;container=0;" parent="Yi4sXTdRfJ2hncfJeWix-9" vertex="1">
          <mxGeometry y="26" width="155.82" height="94" as="geometry" />
        </mxCell>
        <mxCell id="Yi4sXTdRfJ2hncfJeWix-97" value="&lt;p style=&quot;line-height: 110%; padding-top: 30px;&quot;&gt;NIF é uma chave única&lt;/p&gt;" style="shape=note;whiteSpace=wrap;html=1;backgroundOutline=1;darkOpacity=0.05;spacingBottom=4;labelBorderColor=none;container=0;" parent="WIyWlLk6GJQsqaUBKTNV-1" vertex="1">
          <mxGeometry x="1331.82" y="1070" width="150" height="70" as="geometry" />
        </mxCell>
        <mxCell id="Yi4sXTdRfJ2hncfJeWix-103" value="" style="endArrow=none;dashed=1;html=1;dashPattern=1 3;strokeWidth=2;rounded=0;exitX=0.583;exitY=1.049;exitDx=0;exitDy=0;exitPerimeter=0;entryX=0.016;entryY=0.309;entryDx=0;entryDy=0;entryPerimeter=0;" parent="WIyWlLk6GJQsqaUBKTNV-1" source="Yi4sXTdRfJ2hncfJeWix-10" target="Yi4sXTdRfJ2hncfJeWix-27" edge="1">
          <mxGeometry width="50" height="50" relative="1" as="geometry">
            <mxPoint x="1396" y="220" as="sourcePoint" />
            <mxPoint x="1450" y="710" as="targetPoint" />
            <Array as="points">
              <mxPoint x="1417" y="630" />
            </Array>
          </mxGeometry>
        </mxCell>
        <mxCell id="Yi4sXTdRfJ2hncfJeWix-110" value="" style="endArrow=none;html=1;rounded=0;entryX=0.133;entryY=1.02;entryDx=0;entryDy=0;entryPerimeter=0;exitX=0.378;exitY=-0.054;exitDx=0;exitDy=0;exitPerimeter=0;" parent="WIyWlLk6GJQsqaUBKTNV-1" source="Yi4sXTdRfJ2hncfJeWix-11" target="Yi4sXTdRfJ2hncfJeWix-14" edge="1">
          <mxGeometry width="50" height="50" relative="1" as="geometry">
            <mxPoint x="1140" y="800" as="sourcePoint" />
            <mxPoint x="1194" y="570" as="targetPoint" />
          </mxGeometry>
        </mxCell>
        <mxCell id="Yi4sXTdRfJ2hncfJeWix-120" value="" style="endArrow=none;dashed=1;html=1;dashPattern=1 3;strokeWidth=2;rounded=0;entryX=0;entryY=0.5;entryDx=0;entryDy=0;entryPerimeter=0;exitX=1.026;exitY=0.612;exitDx=0;exitDy=0;exitPerimeter=0;" parent="WIyWlLk6GJQsqaUBKTNV-1" source="Yi4sXTdRfJ2hncfJeWix-86" target="Yi4sXTdRfJ2hncfJeWix-97" edge="1">
          <mxGeometry width="50" height="50" relative="1" as="geometry">
            <mxPoint x="1290" y="1100" as="sourcePoint" />
            <mxPoint x="1340" y="610" as="targetPoint" />
          </mxGeometry>
        </mxCell>
        <mxCell id="Yi4sXTdRfJ2hncfJeWix-121" value="" style="endArrow=none;dashed=1;html=1;dashPattern=1 3;strokeWidth=2;rounded=0;entryX=0.818;entryY=0.994;entryDx=0;entryDy=0;entryPerimeter=0;exitX=0;exitY=0.5;exitDx=0;exitDy=0;exitPerimeter=0;" parent="WIyWlLk6GJQsqaUBKTNV-1" source="Yi4sXTdRfJ2hncfJeWix-64" target="Yi4sXTdRfJ2hncfJeWix-14" edge="1">
          <mxGeometry width="50" height="50" relative="1" as="geometry">
            <mxPoint x="1270" y="1030" as="sourcePoint" />
            <mxPoint x="1340" y="720" as="targetPoint" />
            <Array as="points">
              <mxPoint x="1254" y="940" />
            </Array>
          </mxGeometry>
        </mxCell>
        <mxCell id="Yi4sXTdRfJ2hncfJeWix-122" value="" style="endArrow=none;dashed=1;html=1;dashPattern=1 3;strokeWidth=2;rounded=0;exitX=0.115;exitY=0.003;exitDx=0;exitDy=0;exitPerimeter=0;" parent="WIyWlLk6GJQsqaUBKTNV-1" source="Yi4sXTdRfJ2hncfJeWix-28" edge="1">
          <mxGeometry width="50" height="50" relative="1" as="geometry">
            <mxPoint x="1290" y="770" as="sourcePoint" />
            <mxPoint x="1294" y="620" as="targetPoint" />
          </mxGeometry>
        </mxCell>
        <mxCell id="Yi4sXTdRfJ2hncfJeWix-127" value="" style="endArrow=none;html=1;rounded=0;exitX=0.099;exitY=-0.023;exitDx=0;exitDy=0;exitPerimeter=0;" parent="WIyWlLk6GJQsqaUBKTNV-1" source="Yi4sXTdRfJ2hncfJeWix-8" edge="1">
          <mxGeometry width="50" height="50" relative="1" as="geometry">
            <mxPoint x="1290" y="650" as="sourcePoint" />
            <mxPoint x="1052" y="270" as="targetPoint" />
            <Array as="points">
              <mxPoint x="892" y="270" />
            </Array>
          </mxGeometry>
        </mxCell>
        <mxCell id="Yi4sXTdRfJ2hncfJeWix-128" value="" style="endArrow=none;html=1;rounded=0;entryX=0.514;entryY=1;entryDx=0;entryDy=0;entryPerimeter=0;" parent="WIyWlLk6GJQsqaUBKTNV-1" target="Yi4sXTdRfJ2hncfJeWix-38" edge="1">
          <mxGeometry width="50" height="50" relative="1" as="geometry">
            <mxPoint x="1200" y="510" as="sourcePoint" />
            <mxPoint x="1200" y="370" as="targetPoint" />
          </mxGeometry>
        </mxCell>
        <mxCell id="Yi4sXTdRfJ2hncfJeWix-132" value="" style="shape=image;html=1;verticalAlign=top;verticalLabelPosition=bottom;labelBackgroundColor=#ffffff;imageAspect=0;aspect=fixed;image=https://cdn1.iconfinder.com/data/icons/bootstrap/16/asterisk-128.png;strokeColor=default;align=center;fontFamily=Helvetica;fontSize=12;fontColor=default;fillColor=default;" parent="WIyWlLk6GJQsqaUBKTNV-1" vertex="1">
          <mxGeometry x="899" y="562.5" width="10" height="10" as="geometry" />
        </mxCell>
        <mxCell id="Yi4sXTdRfJ2hncfJeWix-134" value="" style="shape=image;html=1;verticalAlign=top;verticalLabelPosition=bottom;labelBackgroundColor=#ffffff;imageAspect=0;aspect=fixed;image=https://cdn1.iconfinder.com/data/icons/bootstrap/16/asterisk-128.png;strokeColor=default;align=center;fontFamily=Helvetica;fontSize=12;fontColor=default;fillColor=default;" parent="WIyWlLk6GJQsqaUBKTNV-1" vertex="1">
          <mxGeometry x="1205" y="500" width="10" height="10" as="geometry" />
        </mxCell>
        <mxCell id="Yi4sXTdRfJ2hncfJeWix-135" value="" style="endArrow=none;html=1;rounded=0;entryX=1;entryY=0.5;entryDx=0;entryDy=0;" parent="WIyWlLk6GJQsqaUBKTNV-1" target="Yi4sXTdRfJ2hncfJeWix-38" edge="1">
          <mxGeometry width="50" height="50" relative="1" as="geometry">
            <mxPoint x="1390" y="400" as="sourcePoint" />
            <mxPoint x="1340" y="520" as="targetPoint" />
            <Array as="points">
              <mxPoint x="1390" y="310" />
            </Array>
          </mxGeometry>
        </mxCell>
        <mxCell id="Yi4sXTdRfJ2hncfJeWix-137" value="1" style="text;align=left;verticalAlign=top;spacingLeft=4;spacingRight=4;overflow=hidden;rotatable=0;points=[[0,0.5],[1,0.5]];portConstraint=eastwest;fontStyle=0;container=0;fontSize=13;" parent="WIyWlLk6GJQsqaUBKTNV-1" vertex="1">
          <mxGeometry x="1341" y="319" width="22" height="30" as="geometry" />
        </mxCell>
        <mxCell id="Yi4sXTdRfJ2hncfJeWix-139" value="1" style="text;align=left;verticalAlign=top;spacingLeft=4;spacingRight=4;overflow=hidden;rotatable=0;points=[[0,0.5],[1,0.5]];portConstraint=eastwest;fontStyle=0;container=0;fontSize=13;" parent="WIyWlLk6GJQsqaUBKTNV-1" vertex="1">
          <mxGeometry x="1036" y="243" width="22" height="30" as="geometry" />
        </mxCell>
        <mxCell id="Yi4sXTdRfJ2hncfJeWix-140" value="" style="endArrow=none;dashed=1;html=1;dashPattern=1 3;strokeWidth=2;rounded=0;" parent="WIyWlLk6GJQsqaUBKTNV-1" edge="1">
          <mxGeometry width="50" height="50" relative="1" as="geometry">
            <mxPoint x="1540" y="230" as="sourcePoint" />
            <mxPoint x="1540" y="200" as="targetPoint" />
          </mxGeometry>
        </mxCell>
        <mxCell id="Yi4sXTdRfJ2hncfJeWix-141" value="" style="endArrow=none;dashed=1;html=1;dashPattern=1 3;strokeWidth=2;rounded=0;entryX=0.83;entryY=1.025;entryDx=0;entryDy=0;entryPerimeter=0;exitX=0;exitY=0;exitDx=50;exitDy=0;exitPerimeter=0;" parent="WIyWlLk6GJQsqaUBKTNV-1" source="Yi4sXTdRfJ2hncfJeWix-0" target="Yi4sXTdRfJ2hncfJeWix-6" edge="1">
          <mxGeometry width="50" height="50" relative="1" as="geometry">
            <mxPoint x="1550" y="240" as="sourcePoint" />
            <mxPoint x="1550" y="210" as="targetPoint" />
          </mxGeometry>
        </mxCell>
        <mxCell id="Yi4sXTdRfJ2hncfJeWix-143" value="" style="endArrow=none;html=1;rounded=0;exitX=0.46;exitY=0.867;exitDx=0;exitDy=0;exitPerimeter=0;" parent="WIyWlLk6GJQsqaUBKTNV-1" source="Yi4sXTdRfJ2hncfJeWix-147" edge="1">
          <mxGeometry width="50" height="50" relative="1" as="geometry">
            <mxPoint x="920" y="1030" as="sourcePoint" />
            <mxPoint x="920" y="698" as="targetPoint" />
          </mxGeometry>
        </mxCell>
        <mxCell id="Yi4sXTdRfJ2hncfJeWix-144" value="" style="shape=image;html=1;verticalAlign=top;verticalLabelPosition=bottom;labelBackgroundColor=#ffffff;imageAspect=0;aspect=fixed;image=https://cdn1.iconfinder.com/data/icons/bootstrap/16/asterisk-128.png;strokeColor=default;align=center;fontFamily=Helvetica;fontSize=12;fontColor=default;fillColor=default;" parent="WIyWlLk6GJQsqaUBKTNV-1" vertex="1">
          <mxGeometry x="841" y="1010" width="10" height="10" as="geometry" />
        </mxCell>
        <mxCell id="Yi4sXTdRfJ2hncfJeWix-146" value="" style="endArrow=none;html=1;rounded=0;exitX=0.5;exitY=0;exitDx=0;exitDy=0;entryX=0.242;entryY=1.003;entryDx=0;entryDy=0;entryPerimeter=0;" parent="WIyWlLk6GJQsqaUBKTNV-1" source="Yi4sXTdRfJ2hncfJeWix-1" edge="1">
          <mxGeometry width="50" height="50" relative="1" as="geometry">
            <mxPoint x="921" y="1030" as="sourcePoint" />
            <mxPoint x="920.8900000000001" y="1030.0900000000001" as="targetPoint" />
          </mxGeometry>
        </mxCell>
        <mxCell id="Yi4sXTdRfJ2hncfJeWix-148" value="" style="endArrow=none;html=1;rounded=0;entryX=0.242;entryY=1.003;entryDx=0;entryDy=0;entryPerimeter=0;" parent="WIyWlLk6GJQsqaUBKTNV-1" target="Yi4sXTdRfJ2hncfJeWix-147" edge="1">
          <mxGeometry width="50" height="50" relative="1" as="geometry">
            <mxPoint x="920" y="1030" as="sourcePoint" />
            <mxPoint x="920" y="770" as="targetPoint" />
          </mxGeometry>
        </mxCell>
        <mxCell id="Yi4sXTdRfJ2hncfJeWix-147" value="1" style="text;align=left;verticalAlign=top;spacingLeft=4;spacingRight=4;overflow=hidden;rotatable=0;points=[[0,0.5],[1,0.5]];portConstraint=eastwest;fontStyle=0;container=0;fontSize=13;" parent="WIyWlLk6GJQsqaUBKTNV-1" vertex="1">
          <mxGeometry x="899" y="1000" width="45" height="30" as="geometry" />
        </mxCell>
        <mxCell id="Yi4sXTdRfJ2hncfJeWix-151" value="" style="endArrow=none;dashed=1;html=1;dashPattern=1 3;strokeWidth=2;rounded=0;exitX=0;exitY=0;exitDx=25;exitDy=0;exitPerimeter=0;" parent="WIyWlLk6GJQsqaUBKTNV-1" source="Yi4sXTdRfJ2hncfJeWix-33" edge="1">
          <mxGeometry width="50" height="50" relative="1" as="geometry">
            <mxPoint x="995" y="830" as="sourcePoint" />
            <mxPoint x="999" y="700" as="targetPoint" />
          </mxGeometry>
        </mxCell>
        <mxCell id="Yi4sXTdRfJ2hncfJeWix-153" value="" style="endArrow=none;dashed=1;html=1;dashPattern=1 3;strokeWidth=2;rounded=0;entryX=0;entryY=0;entryDx=80;entryDy=70;entryPerimeter=0;exitX=0.25;exitY=0;exitDx=0;exitDy=0;" parent="WIyWlLk6GJQsqaUBKTNV-1" source="Yi4sXTdRfJ2hncfJeWix-5" target="Yi4sXTdRfJ2hncfJeWix-30" edge="1">
          <mxGeometry width="50" height="50" relative="1" as="geometry">
            <mxPoint x="1280" y="370" as="sourcePoint" />
            <mxPoint x="1330" y="320" as="targetPoint" />
            <Array as="points">
              <mxPoint x="1457" y="135" />
            </Array>
          </mxGeometry>
        </mxCell>
        <mxCell id="Yi4sXTdRfJ2hncfJeWix-154" value="" style="shape=image;html=1;verticalAlign=top;verticalLabelPosition=bottom;labelBackgroundColor=#ffffff;imageAspect=0;aspect=fixed;image=https://cdn1.iconfinder.com/data/icons/bootstrap/16/asterisk-128.png;strokeColor=default;align=center;fontFamily=Helvetica;fontSize=12;fontColor=default;fillColor=default;" parent="WIyWlLk6GJQsqaUBKTNV-1" vertex="1">
          <mxGeometry x="1150" y="630" width="10" height="10" as="geometry" />
        </mxCell>
        <mxCell id="Yi4sXTdRfJ2hncfJeWix-157" value="1" style="text;align=left;verticalAlign=top;spacingLeft=4;spacingRight=4;overflow=hidden;rotatable=0;points=[[0,0.5],[1,0.5]];portConstraint=eastwest;fontStyle=0;container=0;fontSize=13;" parent="WIyWlLk6GJQsqaUBKTNV-1" vertex="1">
          <mxGeometry x="1140" y="780" width="45" height="30" as="geometry" />
        </mxCell>
        <mxCell id="oaUekNyjb5MMbrQyQfkH-4" value="" style="endArrow=none;html=1;rounded=0;exitX=0;exitY=0.5;exitDx=0;exitDy=0;" parent="WIyWlLk6GJQsqaUBKTNV-1" source="oaUekNyjb5MMbrQyQfkH-7" edge="1">
          <mxGeometry width="50" height="50" relative="1" as="geometry">
            <mxPoint x="1160" y="1000" as="sourcePoint" />
            <mxPoint x="1160" y="866" as="targetPoint" />
          </mxGeometry>
        </mxCell>
        <mxCell id="oaUekNyjb5MMbrQyQfkH-7" value="" style="triangle;whiteSpace=wrap;html=1;rotation=90;" parent="WIyWlLk6GJQsqaUBKTNV-1" vertex="1">
          <mxGeometry x="1150" y="1000" width="20" height="40" as="geometry" />
        </mxCell>
        <mxCell id="oaUekNyjb5MMbrQyQfkH-9" value="" style="endArrow=none;html=1;rounded=0;" parent="WIyWlLk6GJQsqaUBKTNV-1" target="oaUekNyjb5MMbrQyQfkH-10" edge="1">
          <mxGeometry width="50" height="50" relative="1" as="geometry">
            <mxPoint x="1001" y="1085" as="sourcePoint" />
            <mxPoint x="1080" y="1083" as="targetPoint" />
          </mxGeometry>
        </mxCell>
        <mxCell id="oaUekNyjb5MMbrQyQfkH-10" value="" style="triangle;whiteSpace=wrap;html=1;" parent="WIyWlLk6GJQsqaUBKTNV-1" vertex="1">
          <mxGeometry x="1091" y="1065" width="20" height="40" as="geometry" />
        </mxCell>
        <mxCell id="oaUekNyjb5MMbrQyQfkH-12" value="" style="endArrow=none;dashed=1;html=1;dashPattern=1 3;strokeWidth=2;rounded=0;entryX=0.157;entryY=1.02;entryDx=0;entryDy=0;entryPerimeter=0;" parent="WIyWlLk6GJQsqaUBKTNV-1" target="Yi4sXTdRfJ2hncfJeWix-38" edge="1">
          <mxGeometry width="50" height="50" relative="1" as="geometry">
            <mxPoint x="1070" y="420" as="sourcePoint" />
            <mxPoint x="1340" y="370" as="targetPoint" />
          </mxGeometry>
        </mxCell>
        <mxCell id="oaUekNyjb5MMbrQyQfkH-13" value="&lt;p style=&quot;line-height: 110%; padding-top: 15px;&quot;&gt;{se Estado.tipo != &quot;à venda&quot;, preço_venda == NULL}&lt;/p&gt;" style="shape=note;whiteSpace=wrap;html=1;backgroundOutline=1;darkOpacity=0.05;" parent="WIyWlLk6GJQsqaUBKTNV-1" vertex="1">
          <mxGeometry x="950" y="412.5" width="130" height="97.5" as="geometry" />
        </mxCell>
      </root>
    </mxGraphModel>
  </diagram>
</mxfile>
